<?xml version="1.0" standalone="no"?><!DOCTYPE svg PUBLIC "-//W3C//DTD SVG 1.1//EN" "http://www.w3.org/Graphics/SVG/1.1/DTD/svg11.dtd"><svg t="1526711857531" class="icon" style="" viewBox="0 0 1029 1024" version="1.1" xmlns="http://www.w3.org/2000/svg" p-id="2476" xmlns:xlink="http://www.w3.org/1999/xlink" width="200.9765625" height="200"><defs><style type="text/css"></style></defs><path d="M1005.713469 1023.954284c-2.285816 0-4.571633-0.365731-6.7203-1.005759l-317.865619-98.427251-322.437252 98.472968c-3.657306 1.097192-7.543194 1.234341-11.337649 0.50288l-329.157552-68.57449C7.58891 952.728247 0 943.402116 0 932.52163L0 278.869592c0-6.857449 3.062994-13.349167 8.411804-17.692218C13.714898 256.834323 20.66378 255.051386 27.429796 256.468592L274.29796 306.756552C286.641368 309.27095 294.641725 321.34006 292.127327 333.683468 289.612929 346.072593 277.452386 353.935801 265.154694 351.512835L45.716327 306.847984l0 607.112818 305.202197 63.59141 323.534444-98.838698c4.434484-1.37149 9.051833-1.325773 13.4406 0.045716l294.961739 91.341221L982.855306 359.741774l-221.587035-68.163043c-12.06911-3.748739-18.835127-16.503594-15.086388-28.572704 3.657306-12.06911 16.320729-18.835127 28.572704-15.132104l237.679182 73.146123c9.554712 2.971561 16.137863 11.794812 16.137863 21.852404l0 658.223671c0 7.268896-3.428724 14.126345-9.280414 18.377963C1015.313898 1022.445645 1010.513684 1023.954284 1005.713469 1023.954284z" p-id="2477"></path><path d="M516.594491 406.875307C443.494085 406.875307 384.017144 347.398366 384.017144 274.29796s59.476941-132.577347 132.577347-132.577347c73.100406 0 132.531631 59.476941 132.531631 132.577347S589.649181 406.875307 516.594491 406.875307zM516.594491 187.436939c-47.91071 0-86.861021 38.95031-86.861021 86.861021s38.95031 86.861021 86.861021 86.861021c47.864994 0 86.815304-38.95031 86.815304-86.861021S564.459485 187.436939 516.594491 187.436939z" p-id="2478"></path><path d="M516.594491 804.607349c-7.543194 0-14.583508-3.703022-18.835127-9.920443C487.336042 779.509085 242.250815 421.413099 242.250815 274.29796c0-151.275325 123.068351-274.29796 274.29796-274.29796s274.29796 123.022635 274.29796 274.29796c0 147.115139-244.993794 505.211125-255.462833 520.388946C531.132283 800.904326 524.137685 804.607349 516.594491 804.607349zM516.594491 45.716327c-126.039912 0-228.581633 102.541721-228.581633 228.581633 0 101.398812 150.726729 349.318452 228.581633 466.58083 77.854904-117.262378 228.581633-365.182017 228.581633-466.58083C745.176124 148.258047 642.634403 45.716327 516.594491 45.716327z" p-id="2479"></path><path d="M681.12755 923.469798c-12.617706 0-22.858163-10.240457-22.858163-22.858163l0-388.588776c0-12.617706 10.240457-22.858163 22.858163-22.858163s22.858163 10.240457 22.858163 22.858163l0 388.588776C703.985714 913.275057 693.790973 923.469798 681.12755 923.469798z" p-id="2480"></path><path d="M352.015715 1024c-12.617706 0-22.858163-10.240457-22.858163-22.858163L329.157552 512.022858c0-12.617706 10.240457-22.858163 22.858163-22.858163s22.858163 10.240457 22.858163 22.858163l0 489.164695C374.873878 1013.805259 364.633421 1024 352.015715 1024z" p-id="2481"></path></svg>