<?xml version="1.0" standalone="no"?><!DOCTYPE svg PUBLIC "-//W3C//DTD SVG 1.1//EN" "http://www.w3.org/Graphics/SVG/1.1/DTD/svg11.dtd"><svg t="1526700460113" class="icon" style="" viewBox="0 0 1024 1024" version="1.1" xmlns="http://www.w3.org/2000/svg" p-id="2580" xmlns:xlink="http://www.w3.org/1999/xlink" width="200" height="200"><defs><style type="text/css"></style></defs><path d="M512.6 600.8c-101.5 0-184.1-82.6-184.1-184.1s82.6-184.1 184.1-184.1 184.1 82.6 184.1 184.1c0 101.6-82.6 184.1-184.1 184.1z m0-315.6c-72.5 0-131.6 59-131.6 131.6s59 131.5 131.6 131.5 131.5-59 131.5-131.5-58.9-131.6-131.5-131.6z" p-id="2581"></path><path d="M512.6 958.6c-27.1 0-52.3-12.2-69.1-33.6l-18.1-22.8C324.5 774.9 155.7 561.9 155.7 422.7c0-196.8 160.1-357 357-357s357 160.1 357 357c0 139.2-168.9 352.2-269.8 479.5l-18 22.8c-17 21.3-42.1 33.6-69.3 33.6z m0-840.3c-167.9 0-304.5 136.6-304.5 304.5 0 120.8 168.1 332.9 258.4 446.8l18.2 22.9c13.6 17.2 42.2 17.2 55.8 0l18.1-22.9c90.3-113.9 258.5-326 258.5-446.9 0-167.8-136.6-304.4-304.5-304.4z" p-id="2582"></path></svg>