<?xml version="1.0" standalone="no"?><!DOCTYPE svg PUBLIC "-//W3C//DTD SVG 1.1//EN" "http://www.w3.org/Graphics/SVG/1.1/DTD/svg11.dtd"><svg t="1526311213696" class="icon" style="" viewBox="0 0 1024 1024" version="1.1" xmlns="http://www.w3.org/2000/svg" p-id="5224" xmlns:xlink="http://www.w3.org/1999/xlink" width="200" height="200"><defs><style type="text/css"></style></defs><path d="M512 0C229.234286 0 0 229.234286 0 512s229.234286 512 512 512 512-229.234286 512-512S794.765714 0 512 0z m-102.102857 811.565714c-24.914286 0-45.097143-19.954286-45.097143-44.571428a45.097143 45.097143 0 0 1 90.194286 0c0 24.617143-20.194286 44.571429-45.097143 44.571428z m302.857143-5.977143a45.6 45.6 0 0 1-45.097143 0 44.297143 44.297143 0 0 1 0-77.165714 45.6 45.6 0 0 1 45.097143 0 44.285714 44.285714 0 0 1 0 77.165714z m59.051428-102.228571H446.4c-36.502857 0-70.857143-27.565714-77.302857-63.645714l-64.422857-340.194286c-4.297143-19.085714-23.622857-36.057143-42.948572-36.057143h-15.028571c-8.594286 0-17.142857-8.491429-17.142857-16.971428s8.582857-16.982857 17.142857-16.982858H261.714286c36.502857 0 70.857143 27.588571 77.302857 63.645715L403.428571 633.348571c4.297143 19.108571 23.622857 36.08 42.948572 36.08h325.462857a16.822857 16.822857 0 0 1 17.142857 16.971429c0.034286 8.457143-8.548571 16.96-17.142857 16.96z m38.651429-316.857143l-47.211429 151.382857c-8.582857 33.954286-42.937143 63.645714-79.44 65.771429l-230.971428 19.085714c-10.731429 2.125714-19.325714-6.365714-19.325715-14.857143a15.92 15.92 0 0 1 15.04-19.097143l230.96-19.085714c21.474286-2.125714 45.085714-19.097143 49.382858-40.32l47.245714-151.371428c4.297143-16.971429-4.297143-27.577143-21.474286-27.577143H405.6c-8.594286 0-17.142857-8.491429-17.142857-16.982857s8.582857-16.971429 17.142857-16.971429h349.062857c38.651429 0.011429 64.422857 33.965714 55.828572 70.022857z" fill="" p-id="5225"></path></svg>