<?xml version="1.0" standalone="no"?><!DOCTYPE svg PUBLIC "-//W3C//DTD SVG 1.1//EN" "http://www.w3.org/Graphics/SVG/1.1/DTD/svg11.dtd"><svg t="1526098694474" class="icon" style="" viewBox="0 0 1024 1024" version="1.1" xmlns="http://www.w3.org/2000/svg" p-id="2690" xmlns:xlink="http://www.w3.org/1999/xlink" width="200" height="200"><defs><style type="text/css"></style></defs><path d="M973.4229333333333 226.58453333333335c-16.254933333333334-21.165866666666666-41.973333333333336-37.257600000000004-70.5408-37.257600000000004H191.6544l-7.354666666666666-56.0096c-5.377066666666667-41.2928-40.75306666666667-74.14506666666666-86.0224-74.14506666666666H57.89440000000002c-11.965866666666667 0-21.668266666666668 9.922133333333333-21.668266666666668 21.898666666666667 0 11.977599999999999 9.7024 21.9008 21.668266666666668 21.9008h40.382933333333334c17.901866666666667 0 39.923199999999994 10.1344 43.034666666666666 34.048l82.752 633.2341333333334c5.5040000000000004 42.2208 41.66933333333333 68.58133333333333 86.02133333333333 68.58133333333333h549.6650666666667c11.978666666666667 0 21.668266666666668-9.296 21.668266666666668-21.27466666666667 0-11.977599999999999-9.689599999999999-21.2736-21.668266666666668-21.2736H310.0853333333333c-22.6464 0-40.35306666666667-12.567466666666666-43.041066666666666-33.24693333333333l-6.978133333333333-53.101866666666666h547.5594666666666c40.35946666666667 0 74.09173333333334-22.112000000000002 83.91573333333334-59.019733333333335l95.25653333333332-351.8197333333334c6.686933333333333-25.061333333333334 1.8197333333333332-52.750933333333336-13.374933333333333-72.51413333333333z m-28.4896 61.300266666666666L849.6533333333333 640.4768c-4.781866666666666 17.966933333333333-21.268266666666666 25.653333333333332-42.02773333333334 25.653333333333332h-553.312l-56.90026666666667-433.0048h705.4698666666667c15.005866666666666 0 28.192 8.701866666666666 36.165333333333336 19.096533333333333 7.026133333333333 9.138133333333334 9.101866666666666 23.5808 5.8848 35.66293333333333zM388.2357333333333 922.4362666666666c0 26.0672-21.134933333333333 47.19466666666666-47.196799999999996 47.19466666666666-26.062933333333334 0-47.19786666666666-21.127466666666663-47.19786666666666-47.19466666666666 0-26.063999999999997 21.134933333333333-47.19253333333334 47.19786666666666-47.19253333333334 26.061866666666667 0 47.196799999999996 21.1296 47.196799999999996 47.19253333333334z m453.1338666666666 0c0 26.0672-21.1296 47.19466666666666-47.19786666666666 47.19466666666666-26.062933333333334 0-47.1904-21.127466666666663-47.1904-47.19466666666666 0-26.063999999999997 21.128533333333333-47.19253333333334 47.1904-47.19253333333334 26.069333333333333 0 47.19786666666666 21.1296 47.19786666666666 47.19253333333334z m0 0" p-id="2691"></path></svg>