<?xml version="1.0" standalone="no"?><!DOCTYPE svg PUBLIC "-//W3C//DTD SVG 1.1//EN" "http://www.w3.org/Graphics/SVG/1.1/DTD/svg11.dtd"><svg t="1526382024427" class="icon" style="" viewBox="0 0 1024 1024" version="1.1" xmlns="http://www.w3.org/2000/svg" p-id="2004" xmlns:xlink="http://www.w3.org/1999/xlink" width="200" height="200"><defs><style type="text/css"></style></defs><path d="M512.1 927.1c-55.7 0-109.8-10.9-160.7-32.4-49.2-20.8-93.3-50.5-131.2-88.4-37.9-37.9-67.7-82-88.4-131.2-21.5-50.9-32.4-105-32.4-160.7s10.9-109.8 32.4-160.7c20.8-49.2 50.5-93.3 88.4-131.2 37.9-37.9 82-67.7 131.2-88.4 50.9-21.5 105-32.4 160.7-32.4 55.7 0 109.8 10.9 160.7 32.4 49.2 20.8 93.3 50.5 131.2 88.4 37.9 37.9 67.7 82 88.4 131.2 21.5 50.9 32.4 105 32.4 160.7 0 59.5-12.4 117-36.9 170.8-6.3 13.8-22.5 19.8-36.3 13.6-13.8-6.3-19.9-22.5-13.6-36.3 21.2-46.6 32-96.5 32-148.1 0-197.4-160.6-358-358-358S154 317 154 514.4s160.6 358 358 358c44.8 0 88.4-8.2 129.8-24.2 14.1-5.5 30 1.5 35.5 15.6s-1.5 30-15.6 35.5c-47.6 18.3-98 27.8-149.6 27.8z" fill="#3A3A3A" p-id="2005"></path><path d="M415.3 679.2c-2.9 0-5.8-0.5-8.6-1.4-14.4-4.8-22.1-20.3-17.4-34.6 14.8-44.7 37.1-85.6 66.2-121.7C514 449 586 413.4 636.1 396.2c14.3-4.9 29.9 2.7 34.8 17.1s-2.7 29.9-17.1 34.8c-43.3 14.8-105.4 45.5-155.7 107.8-25 31-44.1 66.2-56.9 104.6-3.7 11.5-14.4 18.7-25.9 18.7z" fill="#3A3A3A" p-id="2006"></path><path d="M645 679.2c-11.5 0-22.2-7.3-26-18.8-12.8-38.4-31.9-73.6-56.9-104.6-50.2-62.3-112.4-93-155.7-107.8-14.3-4.9-22-20.5-17.1-34.8 4.9-14.3 20.5-22 34.8-17.1 50.1 17.1 122.1 52.8 180.6 125.2 29.1 36.1 51.4 77.1 66.2 121.7 4.8 14.4-3 29.9-17.4 34.6-2.7 1.2-5.6 1.6-8.5 1.6z" fill="#3A3A3A" p-id="2007"></path></svg>