<?xml version="1.0" standalone="no"?><!DOCTYPE svg PUBLIC "-//W3C//DTD SVG 1.1//EN" "http://www.w3.org/Graphics/SVG/1.1/DTD/svg11.dtd"><svg t="1526869206936" class="icon" style="" viewBox="0 0 1055 1024" version="1.1" xmlns="http://www.w3.org/2000/svg" p-id="1909" xmlns:xlink="http://www.w3.org/1999/xlink" width="206.0546875" height="200"><defs><style type="text/css"></style></defs><path d="M365.02114 670.623706L581.346552 609.115031 426.828401 455.64193l-61.807261 214.981776z m577.763522-420.707392L788.266511 96.443213 448.326578 434.293046l154.518152 153.473101 339.939932-337.849833z m-45.086455 568.656656c0 53.297565-43.294941 96.592506-96.592506 96.592506H221.252078c-53.446858 0-96.592506-43.294941-96.592507-96.592506V238.719347c0-53.446858 43.294941-96.592506 96.592507-96.592506h386.519317l96.592506-96.592507H189.004811C100.026243 45.534334 27.917772 117.642805 27.917772 206.47208v644.198863c0 88.978568 72.108471 161.087039 161.087039 161.087039h644.198863c88.978568 0 161.087039-72.108471 161.087039-161.087039V335.461146l-96.592506 96.592506v386.519318z m116.747047-697.496428l-96.592506-95.995335c-15.97434-15.97434-42.847062-15.078583-59.866453 1.940808l-46.430091 45.982213 154.518151 153.622394 46.280799-46.131506c17.317976-17.019391 18.213734-43.593527 2.0901-59.418574z m0 0" p-id="1910"></path></svg>