<?xml version="1.0" standalone="no"?><!DOCTYPE svg PUBLIC "-//W3C//DTD SVG 1.1//EN" "http://www.w3.org/Graphics/SVG/1.1/DTD/svg11.dtd"><svg t="1526709947340" class="icon" style="" viewBox="0 0 1024 1024" version="1.1" xmlns="http://www.w3.org/2000/svg" p-id="1974" xmlns:xlink="http://www.w3.org/1999/xlink" width="200" height="200"><defs><style type="text/css"></style></defs><path d="M956.959864 377.514144C920.312062 460.494009 868.965812 531.552893 804.199241 588.749026 792.057045 599.441041 779.841111 609.321937 767.600598 618.440874 764.651077 662.560796 747.150584 707.663892 715.418651 752.766988 688.602586 790.91413 651.463198 829.208748 605.081976 866.692248 527.091717 929.639948 450.207529 968.352414 446.987635 969.99923 443.349892 971.842681 439.466356 972.702958 435.58282 972.702958 427.545374 972.702958 419.753722 968.917739 414.813274 962.060102 407.488629 951.859675 408.619279 937.849449 417.467843 928.976305 417.664478 928.779671 441.653918 904.347803 465.299246 862.587497 484.741508 828.176416 507.600297 775.134191 511.655889 711.006683 470.165957 694.759737 420.540261 648.329356 398.271375 626.06047 376.027069 603.791585 329.621268 554.14131 313.398901 512.626798 249.295972 516.65781 196.302906 539.541179 161.916404 559.00802 120.229836 582.60419 95.74881 606.667368 95.503016 606.913161 90.537989 611.82903 83.999883 614.336123 77.437199 614.336123 72.226378 614.336123 66.966398 612.763045 62.443799 609.493992 52.317109 602.169348 48.998898 588.527812 54.578409 577.319631 56.225225 574.099737 94.888533 497.16639 157.811653 419.151553 195.270574 372.696593 233.540612 335.532625 271.663175 308.71656 316.667953 276.960048 361.795629 259.410396 405.890972 256.510034 415.059067 244.220362 424.939964 231.979848 435.58282 219.886811 492.729794 155.071081 563.739519 103.675673 646.670226 67.027871 747.29806 22.588417 865.573863 0.073738 998.351479 0.073738L998.30232 0 1023.864838 0 1023.864838 25.611676C1023.864838 158.463031 1001.374738 276.86173 956.959864 377.514144ZM708.167744 657.448293C650.037596 690.630407 596.577523 707.811368 562.756345 714.029942 559.167761 773.266161 541.937641 824.342038 522.200428 864.676742 592.890621 815.886744 680.540562 741.337593 708.167744 657.448293ZM159.655104 502.180577C199.989808 482.418784 251.090264 465.164085 310.375641 461.526342 316.569636 427.631426 333.775177 374.195933 366.957291 315.992046 282.969673 343.57007 208.420523 431.367487 159.655104 502.180577ZM474.000334 253.830885C380.10724 360.308603 358.870687 470.59612 358.870687 486.474376 358.870687 486.572693 359.091901 497.043494 378.97659 525.309739 392.83934 545.022373 412.601133 568.00406 434.501328 589.928835 456.401524 611.82903 479.358631 631.590823 499.071265 645.478152 527.312931 665.387421 537.783732 665.584055 537.906629 665.584055 553.760305 665.584055 663.949504 644.347502 770.378064 550.40525L770.427223 550.454408C897.772804 438.028489 967.332347 265.973081 972.518589 51.616622 758.285027 56.778285 586.352516 126.460725 474.000334 253.830885ZM691.380052 460.813541C620.886494 460.813541 563.469146 403.371614 563.469146 332.828897 563.469146 262.28618 620.886494 204.844253 691.380052 204.844253 761.873611 204.844253 819.290958 262.28618 819.290958 332.828897 819.290958 403.371614 761.873611 460.813541 691.380052 460.813541ZM691.380052 256.043026C649.054422 256.043026 614.64334 290.503266 614.64334 332.828897 614.64334 375.154527 649.054422 409.614767 691.380052 409.614767 733.681103 409.614767 768.116764 375.154527 768.116764 332.828897 768.116764 290.503266 733.681103 256.043026 691.380052 256.043026ZM248.214481 663.17528C276.112036 663.17528 302.141561 675.17 325.737731 698.717011 362.975438 735.979297 364.302722 773.094106 358.870687 797.67345 341.788043 874.877169 232.827811 950.483231 35.03783 1022.45155 32.162047 1023.483883 29.212526 1024.000049 26.287584 1024.000049L26.287584 1023.95089C19.626582 1023.95089 13.088476 1021.34548 8.172607 1016.47877 1.167494 1009.473657-1.192123 998.953698 2.248985 989.638126 80.976624 773.044947 163.759855 663.17528 248.214481 663.17528ZM234.253413 870.821578C288.844136 833.288919 305.017344 804.285293 308.950039 786.563586 312.882734 768.841879 306.541264 751.906711 289.556937 734.897805 275.743346 721.084214 262.249286 714.374053 248.214481 714.374053L248.263639 714.324894C222.946915 714.324894 193.132171 736.544621 162.06388 778.5753 131.536335 819.893177 100.836734 878.760706 70.604141 954.022657 138.885559 926.518371 193.795813 898.620816 234.253413 870.821578Z" p-id="1975"></path></svg>