<?xml version="1.0" standalone="no"?><!DOCTYPE svg PUBLIC "-//W3C//DTD SVG 1.1//EN" "http://www.w3.org/Graphics/SVG/1.1/DTD/svg11.dtd"><svg t="1526710079136" class="icon" style="" viewBox="0 0 1024 1024" version="1.1" xmlns="http://www.w3.org/2000/svg" p-id="2680" xmlns:xlink="http://www.w3.org/1999/xlink" width="200" height="200"><defs><style type="text/css"></style></defs><path d="M547.2 695.424H477.824a17.088 17.088 0 0 0-17.024 17.088v69.312c0 9.408 7.68 17.088 17.024 17.088h69.952c9.408 0 17.024-7.68 17.024-17.088v-69.312a17.92 17.92 0 0 0-17.6-17.088zM640 266.944c-32.256-28.16-75.2-42.304-126.912-42.304-48.768 0-90.496 14.72-122.88 42.88C358.016 296.32 339.2 335.744 335.04 384a15.552 15.552 0 0 0 4.736 12.928 17.28 17.28 0 0 0 12.928 5.248h65.792a16.64 16.64 0 0 0 17.088-14.72c8.192-54.016 33.472-79.296 78.72-79.296 22.976 0 41.728 7.04 55.296 20.544 14.08 13.568 20.544 30.592 20.544 52.352a59.904 59.904 0 0 1-7.68 29.952c-3.456 7.04-14.08 20.608-44.608 45.888-27.648 23.488-47.04 46.4-58.24 68.16-11.136 22.336-16.448 54.656-16.448 99.904 0 9.408 7.68 17.024 17.088 17.024h59.328c9.408 0 17.088-7.616 17.088-17.024 0-36.48 4.096-53.504 7.68-61.12 3.456-7.68 14.656-22.336 46.4-48.768 29.376-24.128 49.92-47.04 61.12-68.224 11.136-21.76 17.024-44.672 17.024-69.888 1.152-44.672-15.872-81.152-48.768-109.952z" p-id="2681"></path><path d="M511.936 0.64C229.76 0.64 0.576 230.016 0.576 512c0 282.24 229.184 511.36 511.36 511.36a511.36 511.36 0 1 0 0-1022.72z m0 940.48a429.184 429.184 0 0 1-429.12-429.056A429.184 429.184 0 0 1 512 83.008 429.184 429.184 0 0 1 940.992 512a429.184 429.184 0 0 1-429.056 429.056z" p-id="2682"></path></svg>