<?xml version="1.0" standalone="no"?><!DOCTYPE svg PUBLIC "-//W3C//DTD SVG 1.1//EN" "http://www.w3.org/Graphics/SVG/1.1/DTD/svg11.dtd"><svg t="1526098636402" class="icon" style="" viewBox="0 0 1024 1024" version="1.1" xmlns="http://www.w3.org/2000/svg" p-id="2632" xmlns:xlink="http://www.w3.org/1999/xlink" width="200" height="200"><defs><style type="text/css"></style></defs><path d="M656.60698 873.246531c-6.242168 0-11.30344-5.061272-11.30344-11.30344L645.30354 671.305239 451.569164 671.305239l0 190.637852c0 6.242168-5.061272 11.30344-11.304464 11.30344s-11.30344-5.061272-11.30344-11.30344L428.96126 660.001799c0-6.243191 5.060249-11.304464 11.30344-11.304464l216.343303 0c6.243191 0 11.304464 5.061272 11.304464 11.304464l0 201.941292C667.911444 868.184235 662.850172 873.246531 656.60698 873.246531z" p-id="2633"></path><path d="M734.730269 880.806717c-3.169179 0-5.421476-0.128937-6.448876-0.203638L281.723871 880.603079c-27.345812 0.517793-48.650023-7.228635-63.3447-22.981411-21.773909-23.344684-20.510126-55.936987-20.180622-60.862159L198.198549 436.568007c0-6.243191 5.061272-11.30344 11.30344-11.30344 6.244214 0 11.304464 5.061272 11.304464 11.30344l0 360.609011c0 0.333598-0.01535 0.667196-0.045025 1.000793-0.017396 0.225127-1.979074 26.863834 14.262842 44.142359 10.149151 10.79895 25.739221 16.063861 46.376237 15.678074 0.071631-0.001023 0.144286-0.002047 0.215918-0.002047l447.102944 0c0.333598 0 0.668219 0.014326 1.001817 0.044002 0.330528 0.029676 35.861766 2.772136 57.360406-16.876366 11.08036-10.127661 16.756639-24.950252 16.867156-44.053332L803.948747 436.735829c0-6.243191 5.061272-11.30344 11.304464-11.30344 6.242168 0 11.30344 5.061272 11.30344 11.30344l0 360.441189c-0.149403 25.798573-8.343015 46.230927-24.350594 60.789505C779.813047 878.335433 748.566392 880.806717 734.730269 880.806717z" p-id="2634"></path><path d="M995.308029 614.033861c-2.750647 0-5.509481-0.997724-7.684006-3.01466L512.000512 169.914878 36.374954 611.019201c-4.577249 4.243651-11.729136 3.975545-15.974833-0.602727-4.244674-4.577249-3.975545-11.729136 0.601704-15.974833l483.311611-448.232674c4.336772-4.021593 11.037381-4.021593 15.373129 0L1002.996129 594.441641c4.578272 4.245697 4.847401 11.398608 0.601704 15.974833C1001.370095 612.819197 998.343155 614.033861 995.308029 614.033861z" p-id="2635"></path></svg>