<?xml version="1.0" standalone="no"?><!DOCTYPE svg PUBLIC "-//W3C//DTD SVG 1.1//EN" "http://www.w3.org/Graphics/SVG/1.1/DTD/svg11.dtd"><svg t="1526102623729" class="icon" style="" viewBox="0 0 1024 1024" version="1.1" xmlns="http://www.w3.org/2000/svg" p-id="3829" xmlns:xlink="http://www.w3.org/1999/xlink" width="200" height="200"><defs><style type="text/css"></style></defs><path d="M659.353 531.596c-10.745 0-19.443 8.698-19.443 19.442v49.22c0 10.745 8.698 19.443 19.443 19.443s19.442-8.698 19.442-19.443v-49.22c0-10.744-8.698-19.442-19.442-19.442z" fill="" p-id="3830"></path><path d="M905.043 572.118c0-47.071-33.563-86.468-77.974-95.472v-6.754c0-34.382-5.526-67.946-16.475-100.077h43.797c16.475 0 29.88-13.405 29.88-29.88s-13.405-29.88-29.88-29.88h-79.919V98.952c0-28.038-22.921-50.96-50.96-50.96h-418.01c-28.039 0-50.96 22.922-50.96 50.96v211.103h-79.919c-16.372 0-29.88 13.405-29.88 29.88 0 16.372 13.405 29.88 29.88 29.88h43.797c-8.698 25.582-14.121 52.392-15.861 79.816a400.193 400.193 0 0 0-0.614 15.656c-2.149 4.196-4.195 8.493-6.037 12.791-42.16 11.256-72.04 49.63-72.04 94.04 0 47.787 34.587 87.695 80.021 95.882 3.377 29.368 10.95 57.917 22.615 85.444 15.758 37.145 38.373 70.606 67.127 99.36s62.216 51.37 99.361 67.128c38.578 16.373 79.407 24.661 121.464 24.661s82.886-8.288 121.464-24.661c37.145-15.759 70.606-38.373 99.36-67.127s51.37-62.216 67.128-99.361c11.665-27.424 19.238-56.076 22.614-85.444 45.434-8.289 80.021-48.095 80.021-95.882z m-682.428-32.95c0-66.923 54.44-121.259 121.26-121.259s121.259 54.439 121.259 121.26-54.44 121.258-121.26 121.258-121.259-54.438-121.259-121.259z m-59.862 32.95c0-18.112 8.289-34.587 21.49-45.332-0.308 4.094-0.512 8.187-0.512 12.382 0 27.322 6.856 53.006 18.93 75.519-0.614 1.841-0.92 3.786-0.92 5.832v6.754c-22.615-8.084-38.988-29.778-38.988-55.155z m545.001 253.058c-51.88 51.88-120.543 80.43-193.298 80.43-72.756 0-141.418-28.55-193.298-80.43-44.41-44.41-71.733-101.1-78.69-162.19 27.628 22.716 63.033 36.326 101.406 36.326 88.31 0 160.144-71.834 160.144-160.144s-71.834-160.144-160.144-160.144c-36.428 0-69.992 12.177-97.007 32.745 3.172-14.326 7.368-28.345 12.791-41.954h509.39c12.485 31.517 19.034 65.285 19.034 100.077V631.98c0 1.74 0 3.48-0.102 5.321-0.103 3.582-0.205 7.368-0.512 11.666v0.92c-4.195 65.9-32.131 127.706-79.714 175.289zM827.07 627.273V516.86c22.717 8.084 39.09 29.777 39.09 55.257 0 25.377-16.373 47.173-39.09 55.155z" fill="" p-id="3831"></path><path d="M666.311 722.643c-9.516-4.912-21.284-1.228-26.196 8.289-24.559 47.07-72.653 76.337-125.66 76.337-53.005 0-101.202-29.266-125.658-76.337-5.014-9.517-16.68-13.2-26.196-8.289s-13.2 16.68-8.289 26.196c31.312 59.964 92.607 97.212 160.144 97.212S643.39 808.803 674.6 748.839c5.014-9.517 1.33-21.284-8.289-26.196z" fill="" p-id="3832"></path></svg>