<?xml version="1.0" standalone="no"?><!DOCTYPE svg PUBLIC "-//W3C//DTD SVG 1.1//EN" "http://www.w3.org/Graphics/SVG/1.1/DTD/svg11.dtd"><svg t="1526098709435" class="icon" style="" viewBox="0 0 1024 1024" version="1.1" xmlns="http://www.w3.org/2000/svg" p-id="3484" xmlns:xlink="http://www.w3.org/1999/xlink" width="200" height="200"><defs><style type="text/css"></style></defs><path d="M947.735411 849.684049c1.35078 179.239761-174.294164 174.294164-174.294164 174.294164s-1.198272-48.519138 0-43.573541c47.669454-0.827897 122.201996-10.501223 130.720623-130.720623 6.971767-166.55986-171.461884-301.986426-224.556243-338.52284C632.655136 545.758601 574.81126 566.456033 512.000001 566.456033s-120.655135-20.697432-167.605625-55.294824C291.300016 547.697623 112.844579 683.124189 119.838132 849.684049c8.518627 120.2194 83.072956 129.892726 130.720623 130.720623 1.176486-4.945597 0 43.573541 0 43.573541s-175.644944 4.945597-174.294164-174.294164c0.980405-129.849152 129.108402-311.529031 239.915917-362.139699C262.410758 435.996851 228.771985 363.599413 228.771985 283.228016 228.771985 126.799004 355.570989 0 512.000001 0c156.429012 0 283.228016 126.799004 283.228016 283.228016 0 80.371396-33.638774 152.768835-87.408523 204.316334C818.627009 538.155018 946.755006 719.834897 947.735411 849.684049zM756.425779 283.228016c0-134.99083-109.434948-244.425778-244.425778-244.425778C377.009171 38.802238 267.574223 148.237186 267.574223 283.228016S377.009171 527.653795 512.000001 527.653795C646.969044 527.653795 756.425779 418.218846 756.425779 283.228016z" p-id="3485"></path></svg>