<?xml version="1.0" standalone="no"?><!DOCTYPE svg PUBLIC "-//W3C//DTD SVG 1.1//EN" "http://www.w3.org/Graphics/SVG/1.1/DTD/svg11.dtd"><svg t="1526693188540" class="icon" style="" viewBox="0 0 1024 1024" version="1.1" xmlns="http://www.w3.org/2000/svg" p-id="2643" xmlns:xlink="http://www.w3.org/1999/xlink" width="200" height="200"><defs><style type="text/css"></style></defs><path d="M877.714286 78.019048H146.285714c-80.457143 0-146.285714 65.828571-146.285714 146.285714v438.857143c0 80.457143 65.828571 146.285714 146.285714 146.285714h146.285715v75.580952c0 26.819048 14.628571 51.2 39.009523 63.390477 9.752381 4.87619 21.942857 7.314286 31.695238 7.314285 14.628571 0 31.695238-4.87619 43.885715-14.628571l170.666666-131.657143H877.714286c80.457143 0 146.285714-65.828571 146.285714-146.285714v-438.857143c0-80.457143-65.828571-146.285714-146.285714-146.285714z m73.142857 585.142857c0 41.447619-31.695238 73.142857-73.142857 73.142857H565.638095c-7.314286 0-17.066667 2.438095-21.942857 7.314286L365.714286 885.028571v-112.152381c0-19.504762-17.066667-36.571429-36.571429-36.571428H146.285714c-41.447619 0-73.142857-31.695238-73.142857-73.142857v-438.857143c0-41.447619 31.695238-73.142857 73.142857-73.142857h731.428572c41.447619 0 73.142857 31.695238 73.142857 73.142857v438.857143z m-658.285714-292.571429c-41.447619 0-73.142857 31.695238-73.142858 73.142857s31.695238 73.142857 73.142858 73.142857 73.142857-31.695238 73.142857-73.142857c0-39.009524-31.695238-73.142857-73.142857-73.142857z m219.428571 0c-41.447619 0-73.142857 31.695238-73.142857 73.142857s31.695238 73.142857 73.142857 73.142857 73.142857-31.695238 73.142857-73.142857c0-39.009524-31.695238-73.142857-73.142857-73.142857z m219.428571 0c-41.447619 0-73.142857 31.695238-73.142857 73.142857s31.695238 73.142857 73.142857 73.142857 73.142857-31.695238 73.142858-73.142857c0-39.009524-31.695238-73.142857-73.142858-73.142857z m0 0" p-id="2644"></path></svg>