<?xml version="1.0" standalone="no"?><!DOCTYPE svg PUBLIC "-//W3C//DTD SVG 1.1//EN" "http://www.w3.org/Graphics/SVG/1.1/DTD/svg11.dtd"><svg t="1526699036775" class="icon" style="" viewBox="0 0 1024 1024" version="1.1" xmlns="http://www.w3.org/2000/svg" p-id="984" xmlns:xlink="http://www.w3.org/1999/xlink" width="200" height="200"><defs><style type="text/css"></style></defs><path d="M950.221 476.553l-112.626-127.591c-21.105-23.887-62.644-42.594-94.493-42.594h-93.247v-76.747c0-37.318-30.411-67.729-67.729-67.729h-477.266c-37.318 0-67.729 30.411-67.729 67.729v351.402c0 37.318 30.411 67.729 67.729 67.729h10.265v100.921c0 37.318 30.411 67.729 67.729 67.729h65.331c4.893 58.903 54.394 105.43 114.544 105.43s109.651-46.432 114.544-105.43h160.112c4.893 58.903 54.394 105.43 114.639 105.43 60.15 0 109.651-46.432 114.544-105.43h52.667c37.318 0 67.729-30.411 67.729-67.729v-156.37c-2.974-75.115-16.212-93.439-36.742-116.751zM104.861 609.036c-15.35 0-27.917-12.567-27.917-27.917v-351.402c0-15.35 12.472-27.917 27.917-27.917h477.17c15.35 0 27.917 12.472 27.917 27.917v351.402c0 15.35-12.567 27.917-27.917 27.917h-477.17zM362.824 883.212c-41.443 0-75.115-33.769-75.115-75.211s33.672-75.115 75.115-75.115c41.443 0 75.211 33.672 75.211 75.115-0.096 41.443-33.769 75.211-75.211 75.211zM751.928 883.212c-41.443 0-75.211-33.769-75.211-75.211s33.769-75.115 75.211-75.115c41.443 0 75.115 33.672 75.115 75.115 0.096 41.443-33.672 75.211-75.115 75.211zM947.055 631.677v118.19c0 15.35-12.567 27.917-27.917 27.917h-56.216c-13.335-48.734-58.040-84.804-110.899-84.804-52.955 0-97.659 35.975-110.994 84.804h-167.307c-13.335-48.83-57.943-84.804-110.899-84.804-52.955 0-97.659 35.975-110.899 84.804h-68.88c-15.35 0-27.917-12.567-27.917-27.917v-100.921h427.093c37.318 0 67.729-30.411 67.729-67.729v-234.939h93.247c20.626 0 50.844 13.623 64.563 29.067l123.945 139.678c10.553 14.294 16.117 40.484 15.35 116.654z" p-id="985"></path><path d="M799.991 415.828c-6.235-10.745-19.858-18.611-32.33-18.611h-45.76c-15.062 0-27.341 12.279-27.341 27.341v194.935c0 15.062 12.184 27.341 27.341 27.341h118.861c15.062 0 27.245-12.184 27.245-27.341v-69.456c0-9.881-3.742-23.791-8.73-32.33l-59.287-101.881zM840.666 619.397h-118.765v-194.84h45.76c2.686 0 7.387 2.783 8.73 4.988l59.382 101.784c2.59 4.413 4.988 13.526 4.988 18.611l-0.096 69.456z" p-id="986"></path></svg>