<?xml version="1.0" standalone="no"?><!DOCTYPE svg PUBLIC "-//W3C//DTD SVG 1.1//EN" "http://www.w3.org/Graphics/SVG/1.1/DTD/svg11.dtd"><svg t="1526699041314" class="icon" style="" viewBox="0 0 1024 1024" version="1.1" xmlns="http://www.w3.org/2000/svg" p-id="1107" xmlns:xlink="http://www.w3.org/1999/xlink" width="200" height="200"><defs><style type="text/css"></style></defs><path d="M901.793 295.495l-70.816-136.271c-17.496-33.581-60.847-59.894-98.718-59.894H296.834c-37.791 0-81.302 26.154-98.956 59.497l-70.757 133.491c-15.271 28.895-27.207 77.032-27.207 109.66V850.43c0.033 42.9 34.808 77.666 77.708 77.688h673.333c42.888-0.044 77.644-34.8 77.688-77.688V405.175c-0.021-32.588-11.797-80.786-26.85-109.68z m-728.838 21.05l70.717-133.451c8.857-16.681 34.197-31.973 53.162-31.973h435.444c18.866 0 44.007 15.291 52.765 32.012l70.797 136.231c3.356 6.474 6.474 14.775 9.373 23.672H162.569c3.137-9.949 6.573-19.362 10.386-26.491zM876.85 850.429c0 14.259-11.598 25.896-25.916 25.896H177.602c-14.297-0.011-25.885-11.599-25.896-25.896V401.978c0-2.065 0.397-4.806 0.596-7.129h723.675c0.318 3.436 0.874 7.288 0.874 10.327-0.001-0.001-0.001 445.253-0.001 445.253z" p-id="1108"></path><path d="M732.02 537.494L601.548 676.863l-52.626-52.546c-10.112-10.118-26.512-10.122-36.63-0.01-10.118 10.112-10.122 26.512-0.01 36.63l71.015 70.816c5.064 5.064 11.637 7.606 18.27 7.606 3.594 0 7.109-0.933 10.525-2.443 3.773-1.311 7.328-3.336 10.267-6.414l147.511-157.58c9.447-10.767 8.377-27.154-2.39-36.601-10.28-9.019-25.798-8.506-35.46 1.173z m-294.983 37.851H281.583c-14.307 0.396-25.585 12.315-25.189 26.623 0.381 13.751 11.438 24.808 25.189 25.189h155.455c14.307 0 25.906-11.598 25.906-25.906s-11.599-25.906-25.907-25.906zM358.436 685.82h-77.708c-14.302 0.56-25.442 12.608-24.881 26.91 0.529 13.516 11.365 24.352 24.881 24.882h77.708c14.302-0.005 25.892-11.602 25.888-25.904-0.005-14.296-11.592-25.884-25.888-25.888z" p-id="1109"></path></svg>