<?xml version="1.0" standalone="no"?><!DOCTYPE svg PUBLIC "-//W3C//DTD SVG 1.1//EN" "http://www.w3.org/Graphics/SVG/1.1/DTD/svg11.dtd"><svg t="1526699028400" class="icon" style="" viewBox="0 0 1024 1024" version="1.1" xmlns="http://www.w3.org/2000/svg" p-id="862" xmlns:xlink="http://www.w3.org/1999/xlink" width="200" height="200"><defs><style type="text/css"></style></defs><path d="M287.462 512.015h-62.003c-17.656 0-31.99-14.33199999-31.99-31.99 0-17.65999999 14.334-31.993 31.99-31.993h62.003c17.662 0 31.994 14.333 31.994 31.994 0 17.657-14.33199999 31.99-31.994 31.99zM882.93 128.111h-741c-42.71 0-77.423 34.679-77.423 77.359V826.434c0 38.299 31.926 69.457 71.15 69.457H889.17c39.25199999 0 71.15-31.158 71.15-69.457V205.47c-0.03-42.68-34.743-77.358-77.39-77.358z m13.376 77.359v131.07000001H672.87V192.094h210.06c7.363 0 13.377 6.014 13.377 13.377z m-449.203-13.377h161.783v360.362L538.12 524.24a31.762 31.762 0 0 0-23.993 0.128l-67.02 27.511V192.093h-0.002zM128.491 205.47c0-7.362 6.015-13.376 13.44-13.376h241.18499999v144.447H128.491V205.47z m760.65 626.436H135.658c-4.222 0-7.167-2.879-7.167-5.473V400.52399999h254.62500001v199.12100001a32.037 32.037 0 0 0 14.17699999 26.586 32.209 32.209 0 0 0 17.818 5.404c4.095 0 8.254-0.768 12.155-2.39900001l99.21000001-40.72899999 102.56599999 40.85699999c9.85199999 3.963 21.02000001 2.718 29.817-3.232 8.763-5.984 14.01-15.871 14.01-26.488v-199.12h223.438v425.91000001c0 2.594-2.944 5.472-7.166 5.472z m0 0" fill="" p-id="863"></path></svg>