<?xml version="1.0" standalone="no"?><!DOCTYPE svg PUBLIC "-//W3C//DTD SVG 1.1//EN" "http://www.w3.org/Graphics/SVG/1.1/DTD/svg11.dtd"><svg t="1526699020941" class="icon" style="" viewBox="0 0 1024 1024" version="1.1" xmlns="http://www.w3.org/2000/svg" p-id="740" xmlns:xlink="http://www.w3.org/1999/xlink" width="200" height="200"><defs><style type="text/css"></style></defs><path d="M919.2 796.5V445.8c0-30.4-13.6-60.3-36.1-80.4-22-20.8-52.8-29.8-82.6-28.6 4.9-5.3 10.2-10.2 14.4-16.1 4.6-7.4 2.8-18-4.1-23.4-70.1-68.5-140.3-136.8-210.5-205.1-3.9-3.4-7.3-7.8-12.5-9-6.5-2.1-13.8 0.5-18.2 5.5-20.3 21-40.6 41.8-60.6 63-0.5 2.2-1.1 4.4-1.8 6.6 0.3-1.5 0.9-4.4 1.2-5.9-37.6-23.4-75.5-46.4-113.1-69.7-7-4.9-18.2-3.3-22 4.9-50.5 83-100.8 166.3-151.2 249.3-29 0.8-59.2-3.5-86.9 7.4-26.5 9.9-48.3 31-60.3 56.6-8 16.6-10.3 35.2-10.6 53.5v355.1c-0.2 20.4 1.3 41.4 10 60.1 16.7 38.4 56.5 65.2 98.3 65.2h639.5c44.8 0 87.3-31.2 101.5-73.9 7.5-20.7 5.3-42.9 5.6-64.4zM575.8 156.9c3-4 8.2-4.7 12.7-3.8 5.1 2.4 8.7 6.9 12.7 10.7 47.5 47 95.6 93.4 143.1 140.2 4.3 4.3 5.1 12.1 0.6 16.5-5.1 5.5-10.4 10.7-15.5 16.2H403.6c57.4-59.9 114.8-119.8 172.2-179.8z m-184.2 4.7c2.4-4.4 8.8-5.4 12.7-2.6 20.4 12.4 40.5 25.3 61.1 37.5-23.1 25.1-47.3 49-70.7 73.8-21 22.5-42.9 44.1-64 66.5-15 0.1-30.1 0-45.1 0 35.6-58.3 70.5-116.9 106-175.2z m469.9 678.8c-5 17.1-19 31.2-36 36.2-8.6 2.9-17.7 2.3-26.7 2.3-208.9 0-417.7 0.1-626.6 0-27.5-0.2-52.1-24.7-52.2-52.5-0.1-123.2 0-246.5-0.1-369.7-0.1-9-0.4-18.3 2.9-26.8 6.4-20.6 26.4-35.9 47.7-36.9 213-0.3 425.9 0 638.9-0.1 28.4-1 54.4 24.3 54.2 52.9 0.1 123.3 0 246.6 0 370 0.3 8.2 0.6 16.7-2.1 24.6z m-66.7-277.1c-20.9-20.7-51-31.3-80.2-28.8-28.9 2.2-56.7 17.4-74.2 40.7-14.2 18.5-21.8 41.9-21.3 65.2 0.3 26.6 11.3 52.9 30 71.7 20.5 21.2 50.3 32.8 79.7 30.9 28.8-1.3 56.6-15.8 74.7-38.4 16.1-19.6 24.5-45.2 23.2-70.6-0.9-26.5-12.7-52.4-31.9-70.7z m-24.3 97.5c-9.6 17.9-30.3 28.9-50.5 26.3-24.3-2.2-44.9-24.4-45.3-49-1.4-23.5 15.5-46.3 38.1-51.9 14.5-3.5 30.8-1.2 42.8 8.2 20.8 14 27.4 44.7 14.9 66.4z" p-id="741"></path></svg>