<?xml version="1.0" standalone="no"?><!DOCTYPE svg PUBLIC "-//W3C//DTD SVG 1.1//EN" "http://www.w3.org/Graphics/SVG/1.1/DTD/svg11.dtd"><svg t="1526104281631" class="icon" style="" viewBox="0 0 1024 1024" version="1.1" xmlns="http://www.w3.org/2000/svg" p-id="2622" xmlns:xlink="http://www.w3.org/1999/xlink" width="200" height="200"><defs><style type="text/css"></style></defs><path d="M846.043 370.426H756.85c0-132.874-109.361-234.322-248.919-234.322-139.634 0-248.939 101.487-248.939 234.322H169.8c0-159.388 151.569-317.038 338.018-317.038 186.449 0 338.188 157.65 338.188 317.038h0.037zM898.75 506.32c0-45.664-39.96-82.678-89.212-82.678h-595.19c-49.157 0-89.098 36.977-89.098 82.678v392.576c0 45.701 39.903 82.715 89.098 82.715h595.19c49.252 0 89.212-37.014 89.212-82.715V506.32zM583.563 813.273c0 34.294-29.913 62.018-66.871 62.018h-9.499c-36.9 0-66.833-27.724-66.833-62.018V645.048c0-34.257 29.933-62.018 66.833-62.018h9.537c36.92 0 66.833 27.761 66.833 62.018v168.225z" fill="" p-id="2623"></path></svg>