<?xml version="1.0" standalone="no"?><!DOCTYPE svg PUBLIC "-//W3C//DTD SVG 1.1//EN" "http://www.w3.org/Graphics/SVG/1.1/DTD/svg11.dtd"><svg t="1526700752044" class="icon" style="" viewBox="0 0 1024 1024" version="1.1" xmlns="http://www.w3.org/2000/svg" p-id="639" xmlns:xlink="http://www.w3.org/1999/xlink" width="200" height="200"><defs><style type="text/css"></style></defs><path d="M0 512C0 229.230194 229.230194 0 512 0 794.769806 0 1024 229.230194 1024 512 1024 794.769806 794.769806 1024 512 1024 229.230194 1024 0 794.769806 0 512ZM967.111111 512C967.111111 260.649074 763.350926 56.888889 512 56.888889 260.649074 56.888889 56.888889 260.649074 56.888889 512 56.888889 763.350926 260.649074 967.111111 512 967.111111 763.350926 967.111111 967.111111 763.350926 967.111111 512ZM722.893198 471.773468C745.109675 493.990002 745.109675 530.009998 722.893198 552.226532L495.337643 779.782087C473.121109 801.998564 437.101113 801.998564 414.88458 779.782087 392.668103 757.565554 392.668103 721.545557 414.88458 699.329024L601.955783 511.742123 414.88458 324.670976C392.668103 302.454443 392.668103 266.434446 414.88458 244.217913 437.101113 222.001436 473.121109 222.001436 495.337643 244.217913L722.893198 471.773468Z" p-id="640"></path></svg>