<?xml version="1.0" standalone="no"?><!DOCTYPE svg PUBLIC "-//W3C//DTD SVG 1.1//EN" "http://www.w3.org/Graphics/SVG/1.1/DTD/svg11.dtd"><svg t="1526693171634" class="icon" style="" viewBox="0 0 1024 1024" version="1.1" xmlns="http://www.w3.org/2000/svg" p-id="1927" xmlns:xlink="http://www.w3.org/1999/xlink" width="200" height="200"><defs><style type="text/css"></style></defs><path d="M511.658667 320C406.101333 320 320 406.997333 320 513.578667c0 106.666667 86.101333 193.621333 191.658667 193.621333 105.6 0 191.701333-86.997333 191.701333-193.621333 0-106.581333-86.101333-193.578667-191.701333-193.578667z m0 305.834667c-61.098667 0-108.330667-50.517333-108.330667-109.44 0-58.88 50.005333-109.397333 108.373333-109.397334 58.325333 0 108.330667 50.474667 108.330667 109.397334s-47.232 109.44-108.373333 109.44z m477.866666-188.544a48.213333 48.213333 0 0 0-27.733333-33.706667l-77.824-28.032c-5.546667-14.037333-8.32-25.258667-16.64-36.48l36.096-72.96c5.546667-13.994667 5.546667-30.848-2.773333-42.069333-30.549333-39.253333-63.872-75.733333-105.557334-106.624a37.376 37.376 0 0 0-41.685333-2.773334l-72.192 36.437334c-11.093333-5.589333-25.002667-11.221333-36.138667-16.810667l-27.776-78.549333c-5.546667-14.08-16.64-25.258667-33.322666-28.074667a432.384 432.384 0 0 0-147.242667 0 47.957333 47.957333 0 0 0-33.322667 28.074667l-27.776 78.506666c-13.909333 5.632-25.002667 8.448-36.138666 16.853334l-72.234667-36.437334c-13.866667-5.632-30.549333-5.632-41.642667 2.773334-38.912 30.890667-75.008 64.554667-105.557333 106.666666a38.4 38.4 0 0 0-2.773333 42.069334l36.096 72.96c-5.546667 11.178667-11.093333 25.216-16.64 36.437333L58.88 403.626667c-13.866667 5.589333-25.002667 16.810667-27.733333 33.664C25.6 465.365333 25.6 487.808 25.6 513.066667c0 22.442667 2.773333 47.701333 5.546667 75.733333 2.773333 14.037333 13.909333 28.074667 27.776 33.706667l77.781333 28.032c5.546667 14.037333 8.362667 25.258667 16.682667 36.48l-36.096 72.96c-5.546667 13.994667-5.546667 30.848 2.773333 42.069333 30.549333 39.253333 63.872 75.733333 105.557333 106.624 11.093333 8.405333 27.733333 11.221333 41.642667 2.816l72.234667-36.48c11.093333 5.589333 25.002667 11.221333 36.138666 16.810667l27.733334 78.592c5.546667 13.994667 16.682667 25.216 33.365333 28.032 27.776 2.816 50.005333 5.632 75.008 5.632 25.002667 0 47.232-2.816 75.008-5.632 13.866667-2.816 27.733333-14.037333 33.322667-28.032l27.776-78.592c13.909333-5.589333 25.002667-8.405333 36.138666-16.810667l72.192 36.48c13.909333 5.589333 30.592 5.589333 41.685334-2.816 38.912-30.890667 75.008-64.554667 105.557333-106.666667a38.4 38.4 0 0 0 2.773333-42.026666l-36.096-72.96c5.546667-11.221333 11.093333-25.258667 16.64-36.48l77.824-28.074667c13.866667-5.589333 25.002667-16.810667 27.733334-33.664 5.546667-28.032 5.546667-50.517333 5.546666-75.733333 0-25.258667-5.546667-47.701333-8.277333-75.776z m-80.554666 112.213333l-72.192 25.258667c-13.909333 5.632-22.229333 14.08-25.002667 28.074666-5.546667 22.442667-13.909333 42.069333-25.002667 61.738667-5.546667 11.221333-5.546667 25.258667 0 39.253333l33.28 70.144c-16.64 19.626667-33.28 36.48-52.736 53.333334l-69.461333-33.706667c-11.093333-5.546667-25.002667-5.546667-38.869333 0-19.456 11.264-38.912 19.669333-61.141334 25.258667-13.866667 2.816-22.186667 14.08-27.733333 25.258666l-25.045333 72.96a310.912 310.912 0 0 1-72.234667 0l-25.002667-72.96c-5.546667-13.994667-13.866667-22.442667-27.733333-25.258666a234.496 234.496 0 0 1-61.141333-25.216c-11.093333-5.632-25.002667-5.632-38.912 0l-69.418667 33.664c-19.456-16.853333-36.138667-33.706667-52.778667-53.333334l33.322667-70.144c5.546667-11.221333 5.546667-25.258667 0-39.253333-11.093333-19.626667-19.456-39.296-25.002667-61.738667-2.773333-14.037333-13.909333-22.442667-25.002666-28.074666l-72.234667-25.258667c0-13.994667-2.773333-25.216-2.773333-36.437333s0-25.258667 2.773333-36.48l72.234667-25.258667c13.909333-5.632 22.186667-14.037333 25.002666-28.074667 5.546667-22.442667 13.909333-42.069333 25.002667-61.738666 5.546667-11.221333 5.546667-25.216 0-39.253334l-33.322667-70.144c16.64-19.626667 33.322667-36.48 52.778667-53.333333l69.418667 33.706667c11.093333 5.589333 25.002667 5.589333 38.912 0 19.456-11.264 38.869333-19.626667 61.098666-25.258667 13.909333-2.816 22.229333-14.08 27.776-25.258667l25.002667-72.96a310.912 310.912 0 0 1 72.234667 0l25.002666 72.96c5.546667 14.037333 13.909333 22.442667 27.776 25.258667 22.229333 5.589333 41.685333 13.994667 61.141334 25.216 11.093333 5.632 25.002667 5.632 38.869333 0l69.461333-33.664c19.456 16.853333 36.096 33.706667 52.778667 53.333333l-33.322667 70.144c-5.546667 11.221333-5.546667 25.258667 0 39.253334 11.093333 19.626667 19.413333 39.296 25.002667 61.738666 2.773333 14.037333 13.866667 22.442667 25.002667 28.074667l72.192 25.258667c0 13.994667 2.816 25.258667 2.816 36.48s0 22.442667-2.816 36.437333z m80.597333-112.213333a48.213333 48.213333 0 0 0-27.818667-33.706667l-77.781333-28.032c-5.546667-14.037333-8.32-25.258667-16.64-36.48l36.096-72.96c5.546667-13.994667 5.546667-30.848-2.773333-42.069333-30.549333-39.253333-63.872-75.733333-105.557334-106.624a37.376 37.376 0 0 0-41.685333-2.773334l-72.192 36.437334c-11.093333-5.589333-25.002667-11.221333-36.138667-16.810667l-27.776-78.549333c-5.546667-14.08-16.64-25.258667-33.322666-28.074667a432.384 432.384 0 0 0-147.242667 0 47.957333 47.957333 0 0 0-33.322667 28.074667l-27.776 78.506666c-13.909333 5.632-25.002667 8.448-36.138666 16.853334l-72.234667-36.437334c-13.866667-5.632-30.549333-5.632-41.642667 2.773334-38.912 30.890667-75.008 64.554667-105.557333 106.666666a38.4 38.4 0 0 0-2.773333 42.069334l36.096 72.96c-5.546667 11.178667-11.093333 25.216-16.64 36.437333L58.88 403.626667c-13.866667 5.589333-25.002667 16.810667-27.733333 33.664C25.6 465.365333 25.6 487.808 25.6 513.066667c0 22.442667 2.773333 47.701333 5.546667 75.733333 2.773333 14.037333 13.909333 28.074667 27.776 33.706667l77.781333 28.032c5.546667 14.037333 8.362667 25.258667 16.682667 36.48l-36.096 72.96c-5.546667 13.994667-5.546667 30.848 2.773333 42.069333 30.549333 39.253333 63.872 75.733333 105.557333 106.624 11.093333 8.405333 27.733333 11.221333 41.642667 2.816l72.234667-36.48c11.093333 5.589333 25.002667 11.221333 36.138666 16.810667l27.733334 78.592c5.546667 13.994667 16.682667 25.216 33.365333 28.032 27.776 2.816 50.005333 5.632 75.008 5.632 25.002667 0 47.232-2.816 75.008-5.632 13.866667-2.816 27.733333-14.037333 33.322667-28.032l27.776-78.592c13.909333-5.589333 25.002667-8.405333 36.138666-16.810667l72.192 36.48c13.909333 5.589333 30.592 5.589333 41.685334-2.816 38.912-30.890667 75.008-64.554667 105.557333-106.666667a38.4 38.4 0 0 0 2.773333-42.026666l-36.096-72.96c5.546667-11.221333 11.093333-25.258667 16.64-36.48l77.824-28.074667c13.866667-5.589333 25.002667-16.810667 27.733334-33.664 5.546667-28.032 5.546667-50.517333 5.546666-75.733333 0-25.258667-5.546667-47.701333-8.277333-75.776z m-80.597333 112.213333l-72.192 25.258667c-13.909333 5.632-22.229333 14.08-25.002667 28.074666-5.546667 22.442667-13.909333 42.069333-25.002667 61.738667-5.546667 11.221333-5.546667 25.258667 0 39.253333l33.28 70.144c-16.64 19.626667-33.28 36.48-52.736 53.333334l-69.461333-33.706667c-11.093333-5.546667-25.002667-5.546667-38.869333 0-19.456 11.264-38.912 19.669333-61.141334 25.258667-13.866667 2.816-22.186667 14.08-27.733333 25.258666l-25.045333 72.96a310.912 310.912 0 0 1-72.234667 0l-25.002667-72.96c-5.546667-13.994667-13.866667-22.442667-27.733333-25.258666a234.496 234.496 0 0 1-61.141333-25.216c-11.093333-5.632-25.002667-5.632-38.912 0l-69.418667 33.664c-19.456-16.853333-36.138667-33.706667-52.778667-53.333334l33.322667-70.144c5.546667-11.221333 5.546667-25.258667 0-39.253333-11.093333-19.626667-19.456-39.296-25.002667-61.738667-2.773333-14.037333-13.909333-22.442667-25.002666-28.074666l-72.234667-25.258667c0-13.994667-2.773333-25.216-2.773333-36.437333s0-25.258667 2.773333-36.48l72.234667-25.258667c13.909333-5.632 22.186667-14.037333 25.002666-28.074667 5.546667-22.442667 13.909333-42.069333 25.002667-61.738666 5.546667-11.221333 5.546667-25.216 0-39.253334l-33.322667-70.144c16.64-19.626667 33.322667-36.48 52.778667-53.333333l69.418667 33.706667c11.093333 5.589333 25.002667 5.589333 38.912 0 19.456-11.264 38.869333-19.626667 61.098666-25.258667 13.909333-2.816 22.229333-14.08 27.776-25.258667l25.002667-72.96a310.912 310.912 0 0 1 72.234667 0l25.002666 72.96c5.546667 14.037333 13.909333 22.442667 27.776 25.258667 22.229333 5.589333 41.685333 13.994667 61.141334 25.216 11.093333 5.632 25.002667 5.632 38.869333 0l69.461333-33.664c19.456 16.853333 36.096 33.706667 52.778667 53.333333l-33.322667 70.144c-5.546667 11.221333-5.546667 25.258667 0 39.253334 11.093333 19.626667 19.413333 39.296 25.002667 61.738666 2.773333 14.037333 13.866667 22.442667 25.002667 28.074667l72.192 25.258667c0 13.994667 2.816 25.258667 2.816 36.48s0 22.442667-2.816 36.437333z" p-id="1928"></path></svg>