<?xml version="1.0" standalone="no"?><!DOCTYPE svg PUBLIC "-//W3C//DTD SVG 1.1//EN" "http://www.w3.org/Graphics/SVG/1.1/DTD/svg11.dtd"><svg t="1526104254744" class="icon" style="" viewBox="0 0 1024 1024" version="1.1" xmlns="http://www.w3.org/2000/svg" p-id="1930" xmlns:xlink="http://www.w3.org/1999/xlink" width="200" height="200"><defs><style type="text/css"></style></defs><path d="M598.215594 591.274508c176.913269 29.033243 227.892337 155.281599 227.892337 201.183022 0 62.770626-216.137619 77.698616-313.866431 77.698616-97.731882 0-313.8695-14.929014-313.8695-77.698616 0-45.093011 50.304709-173.801395 227.202629-201.124693 11.322883-1.74883 26.192545-38.266535 16.544815-44.936445-57.973366-40.079834-102.541421-109.466134-102.541421-221.380016 0-95.358835 71.690786-171.174568 172.664501-171.174568 100.967576 0 172.661432 75.81471 172.661432 171.174568 0 110.262266-46.89403 181.300182-105.062847 221.801619C570.839083 553.085744 587.120908 589.454046 598.215594 591.274508z" p-id="1931"></path></svg>